<svg id="Layer_1" data-name="Layer 1" xmlns="http://www.w3.org/2000/svg" viewBox="0 0 100 100"><defs><style>.cls-1{fill:#ff5722;}.cls-2{fill:#fff;}</style></defs><title>ITI_ikonyArtboard 20</title><circle class="cls-1" cx="50.65" cy="50.42" r="40"/><path class="cls-2" d="M50.65,26.42a24,24,0,1,0,24,24A24,24,0,0,0,50.65,26.42Zm.28,7.67c1.33,0,2,.71,2,2.15a2.12,2.12,0,0,1-.59,1.63,2.08,2.08,0,0,1-1.41.53c-1.34,0-2-.72-2-2.16S49.59,34.09,50.93,34.09Zm8.33,29.22H42.71V61l6.49-.38V45.32l-5.08-.39V42.61h8.51v18l6.63.38Z"/></svg>