<svg id="Layer_1" data-name="Layer 1" xmlns="http://www.w3.org/2000/svg" viewBox="0 0 100 100"><defs><style>.cls-1{fill:#ff5722;}.cls-2{fill:#fff;}</style></defs><title>ITI_ikonyArtboard 4</title><path class="cls-1" d="M86.11,37.64C86.11,17,69.75.23,49.57.23S13,17,13,37.64c0,9.58,5.65,19.59,8.07,23.22,2,3,28.47,39.37,28.47,39.37l30.1-41.39h0a37.81,37.81,0,0,0,6.44-21.19"/><path class="cls-2" d="M49.57,32.83A8.55,8.55,0,1,0,41,24.29a8.54,8.54,0,0,0,8.55,8.54"/><path class="cls-2" d="M60.09,47.63a10.53,10.53,0,0,0-21,0h0v.46h0V62.48H60.11V47.63Z"/></svg>