<svg id="Layer_1" data-name="Layer 1" xmlns="http://www.w3.org/2000/svg" viewBox="0 0 100 100"><defs><style>.cls-1{fill:#ff5722;}.cls-2{fill:#fff;}</style></defs><title>ITI_ikonyArtboard 5</title><path class="cls-1" d="M85.63,37.64C85.63,17,69.27.23,49.09.23S12.55,17,12.55,37.64c0,9.58,5.65,19.59,8.07,23.22,2,3,28.47,39.37,28.47,39.37l30.1-41.39h0a37.89,37.89,0,0,0,6.44-21.19"/><polygon class="cls-2" points="52.01 31.88 52.01 19.57 35.8 19.57 35.8 56.52 64.37 56.52 64.37 31.88 52.01 31.88"/><polygon class="cls-2" points="63.61 28.41 55.45 20.29 55.34 20.29 55.34 28.55 63.61 28.55 63.61 28.41"/></svg>